Love for All and Sharing is the first step to solving all the problems of humanity.

Websites I want to share.

 
http://www.shareintl.org/

 
http://www.lightmiddleway.com


Thank you very much

No credit for me...credit to EVERYONE for sharing

 
http://thepiratebay.org/user/raymondhome/

STORY


Video: ID : 0
Format : MPEG-4 Visual
Format profile : Advanced Simple@L5
Format settings, BVOP : Yes
Format settings, QPel : No
Format settings, GMC : No warppoints
Format settings, Matrix : Default (H.263)
Muxing mode : Packed bitstream
Codec ID : XVID
Codec ID/Hint : XviD
Duration : 1h 45mn
Bit rate : 759 Kbps
Width : 704 pixels
Height : 348 pixels
Display aspect ratio : 2.023
Frame rate : 25.000 fps
Resolution : 8 bits
Colorimetry : 4:2:0
Scan type : Progressive
Bits/(Pixel*Frame) : 0.124
Stream size : 572 MiB (92%)
Writing library : XviD 1.2.1 (UTC 2008-12-04)

Audio: ID : 1
Format : MPEG Audio
Format version : Version 2.5
Format profile : Layer 3
Codec ID : 55
Codec ID/Hint : MP3
Duration : 1h 45mn
Bit rate mode : Constant
Bit rate : 64.0 Kbps
Channel(s) : 2 channels
Sampling rate : 8 000 Hz
Stream size : 48.3 MiB (8%)
Alignment : Split accross interleaves
Interleave, duration : 500 ms (12.50 video frames)
Interleave, preload duration : 500 ms
Writing library : LAME3.98.4

Used Russian cam and have no ideas who's audio it was but came from raw cam thanks to safcuk for uploading it, anyways did way to much work on this

the first 2 minutes of audio is russian and about an hour or so in another 15 minutes of russian audio, did not want to chop of the movie till a better source comes up take it or leave it.

Duration : 1:45

Language : English

credit LKRG & Xclusive666 & to all the people who made it possible for us to share this...especially EVERYONE involve in the production of the movie...IF YOU LIKE IT...BUY IT :)

*****help what we can with others in need...the world is ONE big family*****

DONT THANK ME...HELP SOMEONE IN NEED :)

MAY YOU & YOUR LOVED ONES ALWAYS BE BLESSED WITH LIGHT, LOVE, JOY, PEACE, GOOD HEALTH & ABUNDANCE :)
 
http://www.imdb.com/title/tt0446029/